<svg xmlns="http://www.w3.org/2000/svg" viewBox="0 0 512 512">
  <defs><linearGradient id="g" x1="0" y1="0" x2="1" y2="1"><stop stop-color="#8955ff"/><stop offset="1" stop-color="#4c20d5"/></linearGradient></defs>
  <rect width="512" height="512" rx="128" fill="url(#g)"/>
  <path d="M86 340c57-39 106-39 170 0 61-39 112-39 170 0v42c-58-38-109-38-170 1-64-39-113-39-170-1z" fill="#fff" opacity=".98"/>
  <path d="M256 344c-4-74 6-127 48-167 29-28 58-43 96-50-24 52-55 87-97 119-28 22-42 54-47 98M224 341c-3-61-24-106-67-139-26-20-50-31-82-36 21 44 47 74 83 101 31 22 53 48 66 74" fill="none" stroke="#fff" stroke-width="18" stroke-linecap="round" stroke-linejoin="round"/>
  <circle cx="258" cy="105" r="25" fill="#fff"/><circle cx="316" cy="145" r="20" fill="#fff"/>
</svg>
